<svg xmlns="http://www.w3.org/2000/svg" viewBox="0 0 237.74 106.88"><g id="Слой_2" data-name="Слой 2"><g id="Слой_1-2" data-name="Слой 1"><path d="M133.27,73a7.23,7.23,0,0,0,2.18-5.29V45.35a23.73,23.73,0,0,0-23.87-23.87,23,23,0,0,0-16.41,6.45,23,23,0,0,0-16.41-6.45A23.53,23.53,0,0,0,67.9,24c-.08-.12-.16-.24-.23-.36a7.38,7.38,0,0,0-5.32-2.15,7.43,7.43,0,0,0-7.45,7.46V67.72a7.46,7.46,0,1,0,14.91,0V45.35a9,9,0,1,1,17.9,0V67.72a7.46,7.46,0,1,0,14.92,0V45.35a9,9,0,1,1,17.9,0V67.72A7.47,7.47,0,0,0,133.27,73Z"/><path d="M172.63,65.11c.66,0,1.33-.07,2-.13,2.8-2.87,7.19-8.31,10.47-12.47V55c.24-1.51.38-3.05.55-4.52.24-2.06,0-3.24-.55-3.83v3.74C181.33,55.22,175.33,62.72,172.63,65.11Z"/><path d="M162.64,54.78c-2.87,2.17-7.36,2.18-11.79,1.38a12.32,12.32,0,0,0,.35,1.36,28.27,28.27,0,0,0,4.55.43,12.47,12.47,0,0,0,7.67-2.14A32.68,32.68,0,0,0,167.15,52c-.49-.08-1-.16-1.47-.29A27.58,27.58,0,0,1,162.64,54.78Z"/><path d="M150.55,53.57A12.27,12.27,0,0,0,158,51.43a20.37,20.37,0,0,0,2-1.94c-.39-.2-.78-.41-1.17-.64a14.88,14.88,0,0,1-1.66,1.55,11.09,11.09,0,0,1-6.69,1.87v-2.9a6.18,6.18,0,0,0-.13,1.13c0,1.24,0,2.48.13,3.69Z"/><path d="M167,59.9c-3.37,2.57-9,2.12-14.16.9a9.49,9.49,0,0,0,1.57,1.65,30.63,30.63,0,0,0,5.71.62,12.38,12.38,0,0,0,7.66-2.14c2.07-1.56,6.85-7.33,10.73-12.21-1.18.77-2.38,1.58-3.46,2.23C171.83,54.89,168.54,58.73,167,59.9Z"/><path d="M167.67,75.18a25.91,25.91,0,0,0,19-7.84,25.89,25.89,0,0,0,7.84-19,25.87,25.87,0,0,0-7.84-19,26.93,26.93,0,0,0-38,0,25.88,25.88,0,0,0-7.85,19,25.9,25.9,0,0,0,7.85,19A25.87,25.87,0,0,0,167.67,75.18Zm18-38a134.87,134.87,0,0,0-14.89,4.08S173.54,33.33,185.64,37.17Zm-20.33,4.08a134.87,134.87,0,0,0-14.89-4.08C162.52,33.33,165.31,41.25,165.31,41.25Zm-14.76,8.12c.4-1.95,1.69-4.92,4.39-3,1.35.94,2.66,1.78,4,2.52.39.23.78.44,1.17.64a25.16,25.16,0,0,0,5.61,2.24c.49.13,1,.21,1.47.29a17.65,17.65,0,0,0,5.09.15A8.17,8.17,0,0,0,175,51c1.08-.65,2.28-1.46,3.46-2.23,2.72-1.78,5.4-3.32,6.59-2,.55.59.79,1.77.55,3.83-.17,1.47-.31,3-.55,4.52-.6,3.74-1.81,7.27-5.63,8.88A16,16,0,0,1,174.62,65c-.66.06-1.33.1-2,.13l-.4,0-1.74.05c-5.25.12-11.9.75-16.09-2.73a9.49,9.49,0,0,1-1.57-1.65c-.22-.31-.43-.62-.63-1a11.78,11.78,0,0,1-1-2.32,12.32,12.32,0,0,1-.35-1.36c-.13-.65-.23-1.3-.3-2-.11-1.21-.13-2.45-.13-3.69A6.18,6.18,0,0,1,150.55,49.37Z"/><path d="M208.69,24.06a8.33,8.33,0,0,0-8.35,8.36v52.4c0,2.45-.69,3.65-2.07,3.61A6.2,6.2,0,0,1,194.46,87a8.17,8.17,0,0,0-5.22-1.4,8.33,8.33,0,0,0-6.08,2.6,9.13,9.13,0,0,0-2.61,6.75q0,4.16,4.95,7.76t13.77,3.61q8.22,0,13-4.78a15.82,15.82,0,0,0,4.78-11.6V32.42a8.33,8.33,0,0,0-8.36-8.36Z"/><path d="M208.69,0a8.41,8.41,0,0,0-6.15,2.54A8.38,8.38,0,0,0,200,8.69a8.38,8.38,0,0,0,2.54,6.15,8.72,8.72,0,0,0,12.3,0,8.34,8.34,0,0,0,2.54-6.15,8.34,8.34,0,0,0-2.54-6.15A8.38,8.38,0,0,0,208.69,0Z"/><path d="M229.13,23.83a8.23,8.23,0,0,0-8.27,8.27V98.56a8.27,8.27,0,1,0,16.54,0V32.1a8.23,8.23,0,0,0-8.27-8.27Z"/><path d="M229.13,17.21a8.3,8.3,0,0,0,6.09-2.52,8.27,8.27,0,0,0,2.52-6.09,8.26,8.26,0,0,0-2.52-6.08,8.62,8.62,0,0,0-12.18,0,8.25,8.25,0,0,0-2.51,6.08A8.26,8.26,0,0,0,223,14.69,8.3,8.3,0,0,0,229.13,17.21Z"/><path d="M8.06,96.53a19.14,19.14,0,0,0-3-1.24c-.87-.26-1.21-.53-1-.8s.57-.41,1.15-.39a2.43,2.43,0,0,1,1.42.45A1.91,1.91,0,0,0,7.81,95,1.64,1.64,0,0,0,9,94.45a1.83,1.83,0,0,0,.51-1.34c0-.55-.44-1-1.31-1.5a6.52,6.52,0,0,0-3.09-.69A4.49,4.49,0,0,0,2,92.08,3.53,3.53,0,0,0,.73,94.76a2.6,2.6,0,0,0,1.45,2.36,13.17,13.17,0,0,0,3,1.29c1,.3,1.41.58,1.23.85s-.6.41-1.25.39a2.84,2.84,0,0,1-1.61-.49,2.11,2.11,0,0,0-1.26-.46,1.64,1.64,0,0,0-1.2.51,1.8,1.8,0,0,0-.52,1.34,2,2,0,0,0,1.06,1.55,6.26,6.26,0,0,0,3.44.73,4.92,4.92,0,0,0,3.4-1.16A3.51,3.51,0,0,0,9.72,99,2.65,2.65,0,0,0,8.06,96.53Z"/><path d="M19.84,90.91a1.59,1.59,0,0,0-1.17.48,1.63,1.63,0,0,0-.48,1.18v5a1.89,1.89,0,0,1-.58,1.41,1.92,1.92,0,0,1-1.41.58,2,2,0,0,1-1.41-.58,1.92,1.92,0,0,1-.57-1.41v-5a1.66,1.66,0,0,0-2.83-1.18,1.63,1.63,0,0,0-.48,1.18v5a5.28,5.28,0,0,0,5.29,5.3,5.28,5.28,0,0,0,5.3-5.3v-5a1.64,1.64,0,0,0-1.66-1.66Z"/><path d="M30.22,96.53a19.14,19.14,0,0,0-3-1.24c-.87-.26-1.21-.53-1-.8s.57-.41,1.15-.39a2.43,2.43,0,0,1,1.42.45A1.91,1.91,0,0,0,30,95a1.64,1.64,0,0,0,1.2-.51,1.83,1.83,0,0,0,.51-1.34c0-.55-.44-1-1.31-1.5a6.47,6.47,0,0,0-3.09-.69,4.49,4.49,0,0,0-3.1,1.16,3.53,3.53,0,0,0-1.29,2.68,2.6,2.6,0,0,0,1.45,2.36,13.17,13.17,0,0,0,3,1.29c1,.3,1.41.58,1.23.85s-.6.41-1.25.39a2.79,2.79,0,0,1-1.6-.49,2.16,2.16,0,0,0-1.27-.46,1.64,1.64,0,0,0-1.2.51,1.8,1.8,0,0,0-.52,1.34,2,2,0,0,0,1.06,1.55,6.28,6.28,0,0,0,3.44.73,4.92,4.92,0,0,0,3.4-1.16A3.51,3.51,0,0,0,31.88,99,2.65,2.65,0,0,0,30.22,96.53Z"/><path d="M38.36,90.91a5.36,5.36,0,0,0-2,.36V88.46a1.59,1.59,0,0,0-.48-1.17,1.63,1.63,0,0,0-1.18-.48,1.64,1.64,0,0,0-1.65,1.65v12.71a1.66,1.66,0,0,0,1.65,1.66,1.64,1.64,0,0,0,1.18-.49,1.59,1.59,0,0,0,.48-1.17v-5a2,2,0,0,1,2-2,2,2,0,0,1,2,2v5a1.59,1.59,0,0,0,.48,1.17,1.65,1.65,0,0,0,2.35,0,1.59,1.59,0,0,0,.48-1.17v-5a5.26,5.26,0,0,0-5.3-5.3Z"/><path d="M46.7,86.15a1.72,1.72,0,1,0,1.22.5A1.62,1.62,0,0,0,46.7,86.15Z"/><path d="M46.7,90.91a1.61,1.61,0,0,0-1.17.48,1.63,1.63,0,0,0-.48,1.18v8.6a1.59,1.59,0,0,0,.48,1.17,1.62,1.62,0,0,0,1.17.49,1.64,1.64,0,0,0,1.18-.49,1.59,1.59,0,0,0,.48-1.17v-8.6a1.64,1.64,0,0,0-1.66-1.66Z"/><path d="M68.29,91a5.71,5.71,0,0,0-2.88.73l-.21-.26A1.62,1.62,0,0,0,64,91a1.64,1.64,0,0,0-1.64,1.64v12.57A1.62,1.62,0,0,0,64,106.88a1.62,1.62,0,0,0,1.16-.47,1.59,1.59,0,0,0,.48-1.16v-3a5.75,5.75,0,0,0,2.61.58,5.89,5.89,0,1,0,0-11.78Zm1.86,7.75a2.64,2.64,0,1,1,.76-1.86A2.53,2.53,0,0,1,70.15,98.79Z"/><path d="M77.07,86.33a1.65,1.65,0,0,0-1.21.49,1.68,1.68,0,0,0-.5,1.21,1.71,1.71,0,0,0,1.71,1.7,1.6,1.6,0,0,0,1.2-.5,1.64,1.64,0,0,0,.5-1.2,1.68,1.68,0,0,0-.5-1.21A1.63,1.63,0,0,0,77.07,86.33Z"/><path d="M77.07,91a1.64,1.64,0,0,0-1.64,1.64v8.51a1.59,1.59,0,0,0,.48,1.16,1.67,1.67,0,0,0,2.32,0,1.62,1.62,0,0,0,.47-1.16V92.68A1.62,1.62,0,0,0,77.07,91Z"/><path d="M88.18,99.42H84.92l4.23-5.54a1.61,1.61,0,0,0,.4-1.2A1.63,1.63,0,0,0,89,91.56l-.3-.21a1.65,1.65,0,0,0-.77-.18h-6a1.64,1.64,0,0,0-1.64,1.64A1.59,1.59,0,0,0,80.73,94a1.56,1.56,0,0,0,1.16.47h2.73L80.39,100a1.6,1.6,0,0,0-.39,1.2,1.58,1.58,0,0,0,.56,1.12,1.43,1.43,0,0,0,1.06.39h6.56a1.62,1.62,0,0,0,1.64-1.63,1.64,1.64,0,0,0-1.64-1.64Z"/><path d="M99.1,99.42H95.84l4.23-5.54a1.61,1.61,0,0,0,.4-1.2,1.63,1.63,0,0,0-.57-1.12l-.3-.21a1.65,1.65,0,0,0-.77-.18h-6a1.64,1.64,0,0,0-1.64,1.64A1.59,1.59,0,0,0,91.65,94a1.56,1.56,0,0,0,1.16.47h2.73L91.31,100a1.65,1.65,0,0,0-.39,1.2,1.58,1.58,0,0,0,.56,1.12,1.43,1.43,0,0,0,1.06.39H99.1a1.62,1.62,0,0,0,1.64-1.63,1.64,1.64,0,0,0-1.64-1.64Z"/><path d="M111.94,91a1.6,1.6,0,0,0-1.16.47l-.22.26a5.89,5.89,0,1,0,0,10.32,1.71,1.71,0,0,0,.22.25,1.57,1.57,0,0,0,1.16.48,1.54,1.54,0,0,0,1.15-.47,1.59,1.59,0,0,0,.48-1.16V92.68a1.57,1.57,0,0,0-.48-1.16A1.55,1.55,0,0,0,111.94,91Zm-2.41,7.75a2.63,2.63,0,0,1-3.7,0,2.62,2.62,0,0,1,0-3.71,2.62,2.62,0,0,1,4.47,1.85A2.55,2.55,0,0,1,109.53,98.79Z"/><path d="M144.73,91.1a1.59,1.59,0,0,0-1.26-.11,1.63,1.63,0,0,0-1,.82l-2.31,5.79-2.31-5.79a1.65,1.65,0,0,0-1.52-.9,1.58,1.58,0,0,0-.56.08,1.66,1.66,0,0,0-1,.82L132.5,97.6l-2.31-5.79a1.61,1.61,0,0,0-1-.82,1.65,1.65,0,0,0-2,2.34l3.7,8.6a1.78,1.78,0,0,0,3.09,0l2.3-5.33,2.29,5.33a1.78,1.78,0,0,0,3.09,0l3.7-8.6a1.58,1.58,0,0,0,.11-1.26A1.54,1.54,0,0,0,144.73,91.1Z"/><path d="M152.5,90.91a5.94,5.94,0,1,0,4.22,1.74A5.77,5.77,0,0,0,152.5,90.91Zm1.87,7.83a2.63,2.63,0,1,1,.78-1.87A2.53,2.53,0,0,1,154.37,98.74Z"/><path d="M165.82,96.74l3-3a1.62,1.62,0,0,0,0-2.33,1.63,1.63,0,0,0-1.17-.49,1.6,1.6,0,0,0-1.17.49L163,94.94V88.46a1.59,1.59,0,0,0-.48-1.17,1.63,1.63,0,0,0-1.18-.48,1.61,1.61,0,0,0-1.17.48,1.59,1.59,0,0,0-.48,1.17v12.71a1.59,1.59,0,0,0,.48,1.17,1.62,1.62,0,0,0,1.17.49,1.64,1.64,0,0,0,1.18-.49,1.59,1.59,0,0,0,.48-1.17V98.55l3.81,3.79a1.6,1.6,0,0,0,1.16.49,1.63,1.63,0,0,0,1.17-.49,1.56,1.56,0,0,0,.49-1.17,1.54,1.54,0,0,0-.5-1.16Z"/><path d="M54.72,95.06a2.34,2.34,0,1,0,2.34,2.34A2.34,2.34,0,0,0,54.72,95.06Z"/><circle cx="120.17" cy="98.24" r="2.34"/><path d="M36.79,56.78a17.33,17.33,0,0,1-9.94,3.49,11.51,11.51,0,0,1-6.32-1.79L45.65,44a6.58,6.58,0,0,0,3.46-6,15.11,15.11,0,0,0-4.72-10.2Q38,21.48,26.85,21.48a25.88,25.88,0,0,0-19,7.85A25.88,25.88,0,0,0,0,48.33a25.9,25.9,0,0,0,7.85,19,25.87,25.87,0,0,0,19,7.84q11.16,0,17.51-6.35t1.88-10.95Q41.77,53.29,36.79,56.78ZM18.44,39.86a11.43,11.43,0,0,1,8.41-3.46,15.48,15.48,0,0,1,5.85,1.19L14.92,47.91A11.63,11.63,0,0,1,18.44,39.86Z"/></g></g></svg>