<svg width="50" height="51" viewBox="0 0 50 51" fill="none" xmlns="http://www.w3.org/2000/svg">
<circle cx="25" cy="25.6135" r="25" fill="#F8CE46"/>
<path d="M38.5163 21.6822H31.8401L27.1469 12.6331C26.9787 12.3087 26.6942 12.0692 26.3458 11.9587C25.9973 11.8482 25.6268 11.8801 25.3024 12.0484C25.1896 12.1068 25.0887 12.1792 25 12.2619C24.9113 12.1792 24.8103 12.1068 24.6976 12.0484C24.3732 11.8801 24.0026 11.8483 23.6542 11.9587C23.3058 12.0691 23.0213 12.3087 22.853 12.6331L17.9062 22.1715C17.7379 22.4959 17.706 22.8665 17.8165 23.2148C17.8542 23.3337 17.908 23.4446 17.9741 23.5465H11.4837C11.2102 23.5465 10.9877 23.324 10.9877 23.0504C10.9877 22.7769 11.2102 22.5543 11.4837 22.5543H16.4552C16.696 22.5543 16.8913 22.3592 16.8913 22.1183C16.8913 21.8775 16.696 21.6822 16.4552 21.6822H11.4837C10.7293 21.6822 10.1155 22.296 10.1155 23.0504C10.1155 23.6761 10.5378 24.2046 11.1122 24.3669L13.6378 37.8368C13.8003 38.7038 14.5586 39.3331 15.4407 39.3331H34.5594C35.4415 39.3331 36.1997 38.7038 36.3623 37.8368L38.8879 24.3669C39.4622 24.2046 39.8845 23.6761 39.8845 23.0504C39.8845 22.296 39.2707 21.6822 38.5163 21.6822ZM25.7039 12.8226C25.8216 12.7616 25.9559 12.7501 26.0822 12.7901C26.2085 12.8301 26.3117 12.917 26.3727 13.0346L31.3196 22.5731C31.3806 22.6907 31.3921 22.8251 31.3521 22.9513C31.3121 23.0777 31.2252 23.1808 31.1075 23.2418C30.99 23.3029 30.8556 23.3144 30.7293 23.2744C30.6029 23.2344 30.4998 23.1475 30.4388 23.0299L25.492 13.4914C25.366 13.2486 25.4611 12.9486 25.7039 12.8226ZM31.5107 24.4187L31.0981 28.6734H25.4361V24.4187H31.5107ZM25 14.4371L29.6647 23.4313C29.6852 23.4711 29.7077 23.5095 29.7317 23.5465H20.2683C20.2923 23.5095 20.3148 23.4711 20.3354 23.4314L20.7902 22.5544H27.4275C27.6683 22.5544 27.8635 22.3592 27.8635 22.1183C27.8635 21.8775 27.6683 21.6823 27.4275 21.6823H21.2425L25 14.4371ZM18.6804 22.573L23.6273 13.0346C23.6883 12.9169 23.7915 12.8301 23.9178 12.7901C23.9672 12.7744 24.0179 12.7666 24.0683 12.7666C24.1467 12.7666 24.2245 12.7855 24.2961 12.8226C24.5389 12.9486 24.634 13.2485 24.5081 13.4913L19.5611 23.0298C19.5001 23.1474 19.397 23.2343 19.2707 23.2743C19.1444 23.3143 19.0101 23.3028 18.8924 23.2417C18.7748 23.1807 18.6879 23.0776 18.6479 22.9512C18.6078 22.825 18.6194 22.6907 18.6804 22.573ZM12.0092 24.4187H17.6131L18.0257 28.6734H12.807L12.0092 24.4187ZM12.9705 29.5455H18.1103L18.5229 33.8002H13.7682L12.9705 29.5455ZM15.4406 38.461C14.9779 38.461 14.5802 38.1309 14.495 37.6762L13.9318 34.6723H18.6075L18.9749 38.461H15.4406V38.461ZM24.5639 38.461H19.8511L19.4837 34.6723H24.5639V38.461ZM24.5639 33.8002H19.3991L18.9865 29.5455H24.5639V33.8002ZM24.5639 28.6734H18.9019L18.4893 24.4187H24.5639V28.6734ZM30.1489 38.461H25.4361V34.6723H30.5163L30.1489 38.461ZM30.6009 33.8003H25.4361V29.5456H31.0136L30.6009 33.8003ZM35.505 37.6762C35.4198 38.1309 35.022 38.461 34.5593 38.461H31.0251L31.3925 34.6723H36.0682L35.505 37.6762ZM36.2318 33.8003H31.4771L31.8898 29.5456H37.0296L36.2318 33.8003ZM37.1931 28.6734H31.9744L32.387 24.4186H37.9908L37.1931 28.6734ZM38.5163 23.5466H38.5092C38.5089 23.5466 38.5087 23.5466 38.5084 23.5466H32.0259C32.092 23.4446 32.1458 23.3338 32.1835 23.2149C32.2523 22.9979 32.2658 22.7722 32.2256 22.5544H38.5163C38.7898 22.5544 39.0123 22.777 39.0123 23.0505C39.0123 23.324 38.7898 23.5466 38.5163 23.5466Z" fill="#060006"/>
</svg>
