<svg width="20" height="21" viewBox="0 0 20 21" fill="none" xmlns="http://www.w3.org/2000/svg">
<rect x="6.41504" y="3.42212" width="8.10086" height="14.2729" fill="#060006"/>
<path d="M10 0.595703C4.4775 0.595703 0 5.0732 0 10.5957C0 16.1182 4.4775 20.5957 10 20.5957C15.5225 20.5957 20 16.1182 20 10.5957C20 5.07197 15.5225 0.595703 10 0.595703ZM12.585 10.5944L10.9462 10.5957L10.945 16.5956H8.69624V10.5957H7.19625V8.52819L8.69624 8.52696L8.69373 7.30947C8.69373 5.62198 9.15122 4.59573 11.1375 4.59573H12.7925V6.66447H11.7575C10.9837 6.66447 10.9462 6.95321 10.9462 7.49195L10.9437 8.52696H12.8037L12.585 10.5944Z" fill="#F8CE46"/>
</svg>
