<svg width="20" height="20" viewBox="0 0 20 20" fill="none" xmlns="http://www.w3.org/2000/svg">
<rect x="3.75775" y="3.93311" width="12.538" height="12.538" fill="#060006"/>
<path d="M10 0C4.47755 0 0 4.47755 0 10C0 15.5224 4.47755 20 10 20C15.5225 20 19.9999 15.5223 19.9999 10C20 4.47755 15.5225 0 10 0ZM15.2807 14.5911L14.48 15.392C14.337 15.5347 13.9185 15.6238 13.905 15.6238C11.372 15.6459 8.93313 14.6509 7.14117 12.8588C5.3443 11.0609 4.3482 8.61331 4.37495 6.07178C4.37495 6.07062 4.46663 5.66404 4.60945 5.52258L5.41009 4.72181C5.70307 4.42747 6.26588 4.29445 6.66014 4.42635L6.82856 4.48254C7.22167 4.61431 7.63439 5.04897 7.74301 5.44941L8.14576 6.92761C8.25437 7.32921 8.10788 7.90055 7.81498 8.19353L7.28036 8.72823C7.80525 10.6714 9.3299 12.1963 11.2734 12.7225L11.8078 12.1877C12.1021 11.8933 12.6733 11.7469 13.074 11.8554L14.552 12.2596C14.9525 12.3696 15.3871 12.7798 15.5188 13.1728L15.575 13.3436C15.7056 13.7368 15.5736 14.2994 15.2807 14.5911Z" fill="#F8CE46"/>
</svg>
