<svg width="20" height="21" viewBox="0 0 20 21" fill="none" xmlns="http://www.w3.org/2000/svg">
<rect x="3.48752" y="4.26392" width="12.7815" height="12.7078" fill="#fff"/>
<path d="M11.9141 10.2397C11.9141 11.2969 11.0571 12.1538 10 12.1538C8.94287 12.1538 8.08594 11.2969 8.08594 10.2397C8.08594 9.18262 8.94287 8.32568 10 8.32568C11.0571 8.32568 11.9141 9.18262 11.9141 10.2397Z" fill="#e7040f"/>
<path  d="M14.4763 6.85318C14.3843 6.60385 14.2375 6.37817 14.0468 6.19293C13.8615 6.0022 13.636 5.85541 13.3865 5.7634C13.1842 5.68481 12.8802 5.59128 12.3204 5.5658C11.7148 5.53818 11.5332 5.53223 10 5.53223C8.46664 5.53223 8.28506 5.53802 7.6796 5.56564C7.11975 5.59128 6.81564 5.68481 6.61346 5.7634C6.36398 5.85541 6.13831 6.0022 5.95322 6.19293C5.76248 6.37817 5.61569 6.6037 5.52353 6.85318C5.44495 7.05551 5.35141 7.35962 5.32593 7.91946C5.29831 8.52493 5.29236 8.70651 5.29236 10.2399C5.29236 11.7731 5.29831 11.9547 5.32593 12.5603C5.35141 13.1201 5.44495 13.4241 5.52353 13.6264C5.61569 13.8759 5.76233 14.1014 5.95306 14.2867C6.13831 14.4774 6.36383 14.6242 6.61331 14.7162C6.81564 14.7949 7.11975 14.8885 7.6796 14.9139C8.28506 14.9416 8.46649 14.9474 9.99985 14.9474C11.5334 14.9474 11.7149 14.9416 12.3203 14.9139C12.8801 14.8885 13.1842 14.7949 13.3865 14.7162C13.8873 14.523 14.2831 14.1272 14.4763 13.6264C14.5549 13.4241 14.6484 13.1201 14.6741 12.5603C14.7017 11.9547 14.7075 11.7731 14.7075 10.2399C14.7075 8.70651 14.7017 8.52493 14.6741 7.91946C14.6486 7.35962 14.5551 7.05551 14.4763 6.85318V6.85318ZM10 13.1883C8.37143 13.1883 7.05124 11.8683 7.05124 10.2397C7.05124 8.61115 8.37143 7.29111 10 7.29111C11.6284 7.29111 12.9486 8.61115 12.9486 10.2397C12.9486 11.8683 11.6284 13.1883 10 13.1883ZM13.0652 7.86362C12.6846 7.86362 12.3761 7.55508 12.3761 7.17453C12.3761 6.79398 12.6846 6.48544 13.0652 6.48544C13.4457 6.48544 13.7543 6.79398 13.7543 7.17453C13.7541 7.55508 13.4457 7.86362 13.0652 7.86362Z" fill="#e7040f"/>
<path d="M10 0.239746C4.478 0.239746 0 4.71774 0 10.2397C0 15.7617 4.478 20.2397 10 20.2397C15.522 20.2397 20 15.7617 20 10.2397C20 4.71774 15.522 0.239746 10 0.239746ZM15.7076 12.6071C15.6798 13.2184 15.5826 13.6357 15.4407 14.001C15.1424 14.7724 14.5326 15.3821 13.7613 15.6804C13.3961 15.8223 12.9787 15.9194 12.3676 15.9473C11.7552 15.9752 11.5596 15.9819 10.0002 15.9819C8.44055 15.9819 8.24509 15.9752 7.6326 15.9473C7.02148 15.9194 6.604 15.8223 6.23886 15.6804C5.85556 15.5362 5.50858 15.3102 5.22171 15.018C4.92966 14.7313 4.70367 14.3842 4.55948 14.001C4.41757 13.6359 4.32037 13.2184 4.2926 12.6073C4.26437 11.9948 4.25781 11.7992 4.25781 10.2397C4.25781 8.6803 4.26437 8.48468 4.29245 7.87234C4.32022 7.26108 4.41727 6.84375 4.55917 6.47845C4.70337 6.09531 4.9295 5.74817 5.22171 5.46146C5.50842 5.16925 5.85556 4.94327 6.23871 4.79907C6.604 4.65717 7.02133 4.56012 7.6326 4.5322C8.24493 4.50427 8.44055 4.49756 10 4.49756C11.5594 4.49756 11.7551 4.50427 12.3674 4.53235C12.9787 4.56012 13.396 4.65717 13.7613 4.79892C14.1444 4.94312 14.4916 5.16925 14.7784 5.46146C15.0705 5.74832 15.2966 6.09531 15.4407 6.47845C15.5827 6.84375 15.6798 7.26108 15.7077 7.87234C15.7356 8.48468 15.7422 8.6803 15.7422 10.2397C15.7422 11.7992 15.7356 11.9948 15.7076 12.6071V12.6071Z" fill="#e7040f"/>
</svg>
